<svg xmlns="http://www.w3.org/2000/svg" width="980" height="470" viewBox="0 0 980 470">
<rect width="100%" height="100%" fill="#ffffff"/>
<text x="40" y="45" font-family="Arial" font-size="28" font-weight="700" fill="#111827">RadThinking-style trace</text>
<rect x="60" y="80" width="860" height="44" rx="10" fill="#f3f4f6" stroke="#d1d5db"/>
<text x="90" y="109" font-family="Arial" font-size="18" fill="#111827">Observation</text>
<line x1="490" y1="124" x2="490" y2="150" stroke="#6b7280" stroke-width="2"/>
<polygon points="490,150 484,140 496,140" fill="#6b7280"/>
<rect x="60" y="150" width="860" height="44" rx="10" fill="#f3f4f6" stroke="#d1d5db"/>
<text x="90" y="179" font-family="Arial" font-size="18" fill="#111827">Temporal comparison</text>
<line x1="490" y1="194" x2="490" y2="220" stroke="#6b7280" stroke-width="2"/>
<polygon points="490,220 484,210 496,210" fill="#6b7280"/>
<rect x="60" y="220" width="860" height="44" rx="10" fill="#f3f4f6" stroke="#d1d5db"/>
<text x="90" y="249" font-family="Arial" font-size="18" fill="#111827">Clinical context</text>
<line x1="490" y1="264" x2="490" y2="290" stroke="#6b7280" stroke-width="2"/>
<polygon points="490,290 484,280 496,280" fill="#6b7280"/>
<rect x="60" y="290" width="860" height="44" rx="10" fill="#f3f4f6" stroke="#d1d5db"/>
<text x="90" y="319" font-family="Arial" font-size="18" fill="#111827">Diagnostic conclusion field</text>
<line x1="490" y1="334" x2="490" y2="360" stroke="#6b7280" stroke-width="2"/>
<polygon points="490,360 484,350 496,350" fill="#6b7280"/>
<rect x="60" y="360" width="860" height="44" rx="10" fill="#f3f4f6" stroke="#d1d5db"/>
<text x="90" y="389" font-family="Arial" font-size="18" fill="#111827">Structured patient trace JSON</text>
</svg>